<?xml version="1.0" encoding="UTF-8"?>
<svg width="2e3pt" height="2e3pt" version="1.1" viewBox="0 0 705.56 705.56" xmlns="http://www.w3.org/2000/svg"><g stroke-width="0"><rect width="705.56" height="705.56" fill="#f09491"/><path d="m229.31 211.67v282.22c0 19.483 15.794 35.278 35.278 35.278 19.483 0 35.278-15.794 35.278-35.278v-135.35c0-29.225 23.692-52.917 52.917-52.917 29.225 0 52.917 23.692 52.917 52.917v135.35c0 19.483 15.794 35.278 35.278 35.278 19.483-4e-5 35.278-15.794 35.278-35.278v-135.35c0-68.192-55.28-123.47-123.47-123.47-18.937 0-36.878 4.2633-52.917 11.882v-35.278c0-19.483-15.794-35.278-35.278-35.278-19.483 0-35.278 15.794-35.278 35.278z" fill="#fff"/></g></svg>
